# xmcd CD database file
#
# Track frame offsets:
#	150
#	16303
#	31463
#	44070
#	64786
#	81317
#	97697
#	107953
#	122098
#	135376
#	150397
#	163438
#	177177
#	193583
#	208952
#	223681
#	237866
#	251825
#	268030
#	277983
#	292339
#	305997
#	320120
#	335552
#
# Disc length: 4678 seconds
#
# Revision: 1
# Processed by: cddbd v1.5.2PL0 Copyright (c) Steve Scherf et al.
# Submitted via: jetAudio 7
#
DISCID=7b124418
DTITLE=Oliver Shanti and friends - Sattva Music 15 Years
DYEAR=1900
DGENRE=Newage
TTITLE0=Kathleen Farley - Heavenly Love
TTITLE1=Oliver Shanti - Onon Mweng
TTITLE2=Oliver Shanti - Macao Kyoto
TTITLE3=Firecrow and Oliver Shanti - Wolfsong
TTITLE4=Oliver Shanti - Chief White Bear's Medicine Dance
TTITLE5=Oliver Shanti - The Secret Of The Bamu Tea House
TTITLE6=Oliver Serano-Alve - Alexander's Journey To The East
TTITLE7=Gandalf - Titaptawa
TTITLE8=Jerry Alfred - Generation Hand Down
TTITLE9=Oliver Serano-Alve - Ilha Dos Amores
TTITLE10=Oliver Shanti - Medicine Man's Other Room
TTITLE11=Oliver Serano-Alve - Stream Of Devotion
TTITLE12=Oliver Shanti - Bodhisattva Child
TTITLE13=Oliver Shanti - Tianamen Square
TTITLE14=Oliver Shanti - Beating Heart
TTITLE15=Chang Fu Guan - Spring Tea Ceremony
TTITLE16=Oliver Shanti - Anden Dance Of Joy
TTITLE17=Gandalf - On Sacred Ground
TTITLE18=Oliver Shanti and Leonard Peltier - Sundancer
TTITLE19=Jerry Alfred - Haven't I Told You
TTITLE20=Oliver Serano-Alve - Hazarat Inayat Love
TTITLE21=Wang Jian-Ming - The Yin And Yang In Harmony
TTITLE22=Darby De Von Simmerman - Highlands
TTITLE23=Oliver Shanti - Donovan, My Timeless Cosmic Friend
EXTD=
EXTT0=
EXTT1=
EXTT2=
EXTT3=
EXTT4=
EXTT5=
EXTT6=
EXTT7=
EXTT8=
EXTT9=
EXTT10=
EXTT11=
EXTT12=
EXTT13=
EXTT14=
EXTT15=
EXTT16=
EXTT17=
EXTT18=
EXTT19=
EXTT20=
EXTT21=
EXTT22=
EXTT23=
PLAYORDER=
